# AST/ASF file generated using VICON BodyLanguage
# -----------------------------------------------
:version 1.10
:name VICON
:units
  mass 1.0
  length 0.45
  angle deg
:documentation
   .ast/.asf automatically generated from VICON data using
   VICON BodyBuilder and BodyLanguage model FoxedUp or BRILLIANT.MOD
:root
   order TX TY TZ RX RY RZ
   axis XYZ
   position 0 0 0  
   orientation 0 0 0 
:bonedata
  begin
     id 1 
     name lhipjoint
     direction 0.661853 -0.702389 0.261917 
     length 2.64193 
     axis 0 0 0  XYZ
  end
  begin
     id 2 
     name lfemur
     direction 0.34202 -0.939693 0  
     length 7.01722  
     axis 0 0 20  XYZ
    dof rx ry rz
    limits (-160.0 20.0)
           (-70.0 70.0)
           (-60.0 70.0)
  end
  begin
     id 3 
     name ltibia
     direction 0.34202 -0.939693 0   
     length 8.25008   
     axis 0 0 20   XYZ
    dof rx
    limits (-10.0 170.0)
  end
  begin
     id 4 
     name lfoot
     direction 0.0709916 -0.195048 0.978221   
     length 2.31941   
     axis -90 7.62852e-016 20   XYZ
    dof rx rz
    limits (-45.0 90.0)
           (-70.0 20.0)
  end
  begin
     id 5 
     name ltoes
     direction 1.53586e-011 -4.22017e-011 1   
     length 1.16486   
     axis -90 7.62852e-016 20   XYZ
    dof rx
    limits (-90.0 20.0)
  end
  begin
     id 6 
     name rhipjoint
     direction -0.638185 -0.721362 0.268992   
     length 2.57244  
     axis 0 0 0  XYZ 
  end
  begin
     id 7 
     name rfemur
     direction -0.34202 -0.939693 0   
     length 7.07017   
     axis 0 0 -20   XYZ
    dof rx ry rz
    limits (-160.0 20.0)
           (-70.0 70.0)
           (-70.0 60.0)
  end
  begin
     id 8 
     name rtibia
     direction -0.34202 -0.939693 0   
     length 8.20386   
     axis 0 0 -20   XYZ
    dof rx
    limits (-10.0 170.0)
 end
 begin
     id 9 
     name rfoot
     direction -0.0822429 -0.225961 0.970658   
     length 2.32215  
     axis -90 -7.62852e-016 -20   XYZ
    dof rx rz
    limits (-45.0 90.0)
           (-20.0 70.0)
  end
  begin
     id 10 
     name rtoes
     direction -1.53597e-011 -4.21689e-011 1   
     length 1.16333   
     axis -90 -7.62852e-016 -20   XYZ
    dof rx
    limits (-90.0 20.0)
  end
  begin
     id 11 
     name lowerback
     direction -0.0131557 0.998589 -0.0514484   
     length 2.14993   
     axis 0 0 0   XYZ
    dof rx ry rz
    limits (-20.0 45.0)
           (-30.0 30.0)
           (-30.0 30.0)
  end
  begin
     id 12 
     name upperback
     direction -0.000776481 0.999993 0.00352685   
     length 2.15301   
     axis 0 0 0   XYZ
    dof rx ry rz
    limits (-20.0 45.0)
           (-30.0 30.0)
           (-30.0 30.0)
  end
  begin
     id 13 
     name thorax
     direction 0.00438186 0.999609 0.0276143   
     length 2.15424   
     axis 0 0 0   XYZ
    dof rx ry rz
    limits (-20.0 45.0)
           (-30.0 30.0)
           (-30.0 30.0)
  end
  begin
     id 14 
     name lowerneck
     direction -0.0488006 0.998094 0.0377807   
     length 1.90481   
     axis 0 0 0   XYZ
    dof rx ry rz
    limits (-20.0 45.0)
           (-30.0 30.0)
           (-30.0 30.0)
  end
  begin
     id 15 
     name upperneck
     direction 0.0443769 0.990702 -0.12861   
     length 1.91305   
     axis 0 0 0   XYZ
    dof rx ry rz
    limits (-20.0 45.0)
           (-30.0 30.0)
           (-30.0 30.0)
  end
  begin
     id 16
     name head
     direction 0.0165599 0.998647 -0.0492982  
     length 1.92369  
     axis 0 0 0   XYZ
    dof rx ry rz
    limits (-20.0 45.0)
           (-30.0 30.0)
           (-30.0 30.0)
  end
  begin
     id 17 
     name lclavicle
     direction 0.911936 0.410197 -0.0105506  
     length 3.52622  
     axis 0 0 0   XYZ
    dof ry rz
    limits (-20.0 10.0)
           (0.0 20.0)
  end
  begin
     id 18 
     name lhumerus
     direction 1 -4.48974e-011 -2.48591e-028   
     length 5.47651   
     axis 180 -30 -90   XYZ
    dof rx ry rz
    limits (-60.0 90.0)
           (-90.0 90.0)
           (-90.0 90.0)
  end
  begin
     id 19
     name lradius
     direction 1 -4.48938e-011 -4.40099e-027   
     length 3.09058   
     axis 180 -30 -90   XYZ
    dof rx
    limits (-10.0 170.0)
  end
  begin
     id 20
     name lwrist
     direction 1 -4.49042e-011 -2.99852e-027   
     length 1.54529   
     axis 1.95339e-015 90 90   XYZ
    dof ry
    limits (-180.0 0.0)
 end
  begin
     id 21 
     name lhand
     direction 1 -4.48815e-011 -5.98193e-027   
     length 0.771611   
     axis 3.82337e-015 90 90   XYZ
    dof rx rz
    limits (-90.0 90.0)
           (-45.0 45.0)
  end
  begin
     id 22 
     name lfingers
     direction 1 -4.49034e-011 -1.1993e-026   
     length 0.622093   
     axis 7.64668e-015 90 90   XYZ
    dof rx
    limits (0.0 90.0)
  end
  begin
     id 23
     name lthumb
     direction 0.707107 -6.34867e-011 0.707107   
     length 0.893204   
     axis -90 45 -1.62303e-014   XYZ
    dof rx rz
    limits (-45.0 45.0)
           (-45.0 45.0)
  end
  begin
     id 24 
     name rclavicle
     direction -0.93442 0.355634 -0.0195692   
     length 3.62463  
     axis 0 0 0   XYZ 
    dof ry rz
    limits (-10.0 20.0)
           (-20.0 0.0)
  end
  begin
     id 25 
     name rhumerus
     direction -1 -4.48957e-011 -1.19147e-027  
     length 5.14182   
     axis 180 30 90   XYZ
    dof rx ry rz
    limits (-90.0 60.0)
           (-90.0 90.0)
           (-90.0 90.0)
  end
  begin
     id 26 
     name rradius
     direction -1 -4.48952e-011 -3.81062e-027   
     length 3.35565   
     axis 180 30 90   XYZ
    dof rx
    limits (-10.0 170.0)
  end
  begin
     id 27 
     name rwrist
     direction -1 -4.48973e-011 -2.99621e-027   
     length 1.67782   
     axis 1.95339e-015 -90 -90   XYZ
    dof ry
    limits (-180.0 0.0)
  end
  begin
     id 28
     name rhand
     direction -1 -4.48895e-011 -5.98727e-027   
     length 0.801042   
     axis 3.82337e-015 -90 -90   XYZ
    dof rx rz
    limits (-90.0 90.0)
           (-45.0 45.0)
  end
  begin
     id 29
     name rfingers
     direction -1 -4.49065e-011 -1.19972e-026   
     length 0.645821   
     axis 7.64668e-015 -90 -90   XYZ
    dof rx
    limits (0.0 90.0)
  end
  begin
     id 30
     name rthumb
     direction -0.707107 -6.34957e-011 0.707107   
     length 0.927273   
     axis -90 -45 1.62303e-014   XYZ
    dof rx rz
    limits (-45.0 45.0)
           (-45.0 45.0)
  end
:hierarchy
  begin
    root lhipjoint rhipjoint lowerback
    lhipjoint lfemur
    lfemur ltibia
    ltibia lfoot
    lfoot ltoes
    rhipjoint rfemur
    rfemur rtibia
    rtibia rfoot
    rfoot rtoes
    lowerback upperback
    upperback thorax
    thorax lowerneck lclavicle rclavicle
    lowerneck upperneck
    upperneck head
    lclavicle lhumerus
    lhumerus lradius
    lradius lwrist
    lwrist lhand lthumb
    lhand lfingers
    rclavicle rhumerus
    rhumerus rradius
    rradius rwrist
    rwrist rhand rthumb
    rhand rfingers
  end

#!OML:ASF E:\Style4\Style4.ASF
:FULLY-SPECIFIED
:DEGREES
1
root 0.490753 18.1404 -0.0642171 1.12896 -8.98501 5.15651
lowerback 3.96239 2.37522 -1.79166
upperback 5.78652 3.14034 -0.348425
thorax 3.67115 1.50185 0.618118
lowerneck -6.91707 -5.82496 -5.37845
upperneck 22.3323 -8.18732 4.15904
head 8.4652 -3.91639 1.51287
rclavicle 2.74323e-014 1.90833e-014
rhumerus -63.3904 17.7715 -102.416
rradius 72.0649
rwrist -90.683
rhand -30.1968 1.27809
rfingers 7.12502
rthumb -3.50748 -28.6728
lclavicle 2.74323e-014 1.90833e-014
lhumerus -65.3858 -26.3833 104.073
lradius 75.3052
lwrist 70.7448
lhand -16.3893 45.3732
lfingers 7.12502
lthumb 9.82453 75.124
rfemur -8.50626 3.99639 11.9435
rtibia 21.8769
rfoot -13.4872 -18.1073
rtoes -13.3674
lfemur 3.3746 -3.79195 -26.8561
ltibia 4.88619
lfoot -13.0209 24.0156
ltoes -11.8667
2
root 0.47187 18.1418 -0.0700392 1.1108 -9.14201 5.0353
lowerback 4.0148 2.38968 -1.69734
upperback 5.83733 3.15935 -0.330551
thorax 3.69829 1.51401 0.582852
lowerneck -6.95169 -5.80534 -5.28811
upperneck 22.3052 -8.15795 4.09976
head 8.45404 -3.90058 1.4805
rclavicle 2.50469e-014 -1.74931e-014
rhumerus -63.2025 17.6386 -102.355
rradius 71.8629
rwrist -90.2666
rhand -29.8551 1.20132
rfingers 7.12502
rthumb -3.17751 -28.7548
lclavicle 2.50469e-014 -1.74931e-014
lhumerus -65.1136 -26.5562 103.752
lradius 75.3071
lwrist 70.3401
lhand -16.8721 45.1551
lfingers 7.12502
lthumb 9.35873 74.9273
rfemur -8.47263 4.19292 12.1554
rtibia 21.796
rfoot -12.9712 -18.2673
rtoes -15.3916
lfemur 3.26317 -3.6383 -26.6509
ltibia 5.16065
lfoot -13.0676 24.0118
ltoes -12.0834
3
root 0.454776 18.144 -0.0752918 1.16845 -9.29298 5.01004
lowerback 3.9903 2.39087 -1.64179
upperback 5.8461 3.16346 -0.379053
thorax 3.72676 1.51896 0.503452
lowerneck -6.95571 -5.77549 -5.14637
upperneck 22.2837 -8.12448 4.04196
head 8.43666 -3.87917 1.44159
rclavicle -2.5842e-014 -2.22639e-014
rhumerus -63.0189 17.4622 -102.35
rradius 71.6928
rwrist -89.8173
rhand -29.8355 1.11705
rfingers 7.12502
rthumb -3.15861 -28.8393
lclavicle -2.5842e-014 -2.22639e-014
lhumerus -64.8827 -26.6524 103.358
lradius 75.3064
lwrist 69.8972
lhand -17.0242 45.1973
lfingers 7.12502
lthumb 9.21204 74.9761
rfemur -8.57174 4.2944 12.2373
rtibia 21.781
rfoot -13.4107 -18.0544
rtoes -13.1159
lfemur 3.20685 -3.4954 -26.5604
ltibia 5.1596
lfoot -13.0635 24.0014
ltoes -12.2051
4
root 0.437627 18.1456 -0.0799783 1.25138 -9.40651 4.98063
lowerback 3.9461 2.36745 -1.62728
upperback 5.8368 3.13352 -0.390593
thorax 3.74376 1.50462 0.485552
lowerneck -6.88824 -5.74386 -5.01486
upperneck 22.1894 -8.07226 3.92015
head 8.37849 -3.85765 1.38771
rclavicle -1.27222e-014 6.36111e-015
rhumerus -62.8684 17.3339 -102.294
rradius 71.5033
rwrist -89.4047
rhand -29.7302 1.23385
rfingers 7.12502
rthumb -3.05687 -28.724
lclavicle -1.27222e-014 6.36111e-015
lhumerus -64.6194 -26.644 102.96
lradius 75.2803
lwrist 69.3754
lhand -17.0162 45.4451
lfingers 7.12502
lthumb 9.21971 75.2235
rfemur -8.70324 4.28038 12.3151
rtibia 21.7727
rfoot -13.8405 -17.7945
rtoes -10.7887
lfemur 3.09044 -3.39424 -26.4558
ltibia 5.20992
lfoot -13.1057 23.9878
ltoes -12.3499
5
root 0.419329 18.1472 -0.0845241 1.28464 -9.5431 4.98136
lowerback 3.93972 2.35898 -1.69931
upperback 5.8227 3.12019 -0.360123
thorax 3.72746 1.49448 0.556916
lowerneck -6.73713 -5.72255 -4.9644
upperneck 22.1011 -8.0193 3.76945
head 8.30977 -3.84616 1.34017
rclavicle -2.36554e-014 -1.51076e-014
rhumerus -62.8197 17.2179 -102.192
rradius 71.3695
rwrist -88.9716
rhand -29.606 1.34877
rfingers 7.12502
rthumb -2.93697 -28.6108
lclavicle -2.36554e-014 -1.51076e-014
lhumerus -64.3371 -26.6903 102.683
lradius 75.1149
lwrist 68.7895
lhand -16.9944 45.4988
lfingers 7.12502
lthumb 9.24076 75.2763
rfemur -8.78729 4.23089 12.3683
rtibia 21.7599
rfoot -13.7681 -17.6654
rtoes -10.7876
lfemur 2.97276 -3.26739 -26.3865
ltibia 5.36733
lfoot -13.2479 23.9818
ltoes -12.4076
6
root 0.400208 18.1488 -0.0925381 1.30355 -9.71642 4.91866
lowerback 4.01029 2.37658 -1.66366
upperback 5.79984 3.14165 -0.357086
thorax 3.66514 1.50716 0.536219
lowerneck -6.63448 -5.67098 -4.89869
upperneck 22.1122 -7.94295 3.68119
head 8.28435 -3.81487 1.31099
rclavicle -2.04748e-014 1.19271e-014
rhumerus -62.7741 17.0028 -102.129
rradius 71.2559
rwrist -88.5693
rhand -29.6431 1.10268
rfingers 7.12502
rthumb -2.97282 -28.8563
lclavicle -2.04748e-014 1.19271e-014
lhumerus -64.0473 -26.7344 102.307
lradius 74.9665
lwrist 68.0863
lhand -16.884 45.6379
lfingers 7.12502
lthumb 9.34731 75.4106
rfemur -8.85335 4.31468 12.5083
rtibia 21.7247
rfoot -13.7001 -17.6167
rtoes -10.7146
lfemur 2.7968 -3.10356 -26.2407
ltibia 5.66072
lfoot -13.5221 23.9073
ltoes -12.0436
7
root 0.382026 18.1507 -0.102663 1.36432 -9.87742 4.69731
lowerback 4.12315 2.37264 -1.42376
upperback 5.7842 3.13612 -0.337871
thorax 3.59672 1.51395 0.417169
lowerneck -6.55551 -5.62405 -4.78057
upperneck 22.0198 -7.86838 3.56181
head 8.22498 -3.78355 1.26278
rclavicle 1.39149e-015 -2.06736e-014
rhumerus -62.6266 16.7824 -102.068
rradius 71.0742
rwrist -88.19
rhand -29.7984 0.649756
rfingers 7.12502
rthumb -3.12272 -29.3071
lclavicle 1.39149e-015 -2.06736e-014
lhumerus -63.7067 -26.7185 101.835
lradius 74.9414
lwrist 67.3481
lhand -17.0059 45.8516
lfingers 7.12502
lthumb 9.22968 75.6296
rfemur -8.95166 4.38214 12.8245
rtibia 21.708
rfoot -13.6321 -17.5419
rtoes -10.7751
lfemur 2.65465 -2.94805 -25.9162
ltibia 5.83517
lfoot -13.6673 23.843
ltoes -11.6769
8
root 0.364797 18.1526 -0.108091 1.43885 -10.001 4.53773
lowerback 4.15844 2.33778 -1.2672
upperback 5.7805 3.0901 -0.305068
thorax 3.57983 1.49635 0.362686
lowerneck -6.52516 -5.59408 -4.77569
upperneck 21.951 -7.81665 3.51756
head 8.19181 -3.76416 1.2539
rclavicle 9.14409e-015 -3.97569e-015
rhumerus -62.4866 16.6501 -101.964
rradius 70.9051
rwrist -87.9117
rhand -29.7766 0.503259
rfingers 7.12502
rthumb -3.10169 -29.4539
lclavicle 9.14409e-015 -3.97569e-015
lhumerus -63.3512 -26.7026 101.459
lradius 74.8826
lwrist 66.7097
lhand -17.2668 45.8415
lfingers 7.12502
lthumb 8.97789 75.6305
rfemur -9.04798 4.37376 13.0601
rtibia 21.7046
rfoot -13.6655 -17.3996
rtoes -10.6391
lfemur 2.55606 -2.82988 -25.6704
ltibia 5.92452
lfoot -13.6453 23.8281
ltoes -11.7664
9
root 0.346644 18.1541 -0.109204 1.47679 -10.1757 4.56841
lowerback 4.11087 2.31261 -1.34756
upperback 5.79958 3.0561 -0.302772
thorax 3.62276 1.47559 0.412699
lowerneck -6.50434 -5.51119 -4.72174
upperneck 21.9114 -7.68607 3.41077
head 8.16193 -3.70902 1.22358
rclavicle 4.57205e-015 7.95139e-016
rhumerus -62.3354 16.5328 -101.831
rradius 70.7493
rwrist -87.6485
rhand -29.6138 0.489839
rfingers 7.12502
rthumb -2.94453 -29.4696
lclavicle 4.57205e-015 7.95139e-016
lhumerus -62.9873 -26.6774 101.082
lradius 74.7433
lwrist 66.1797
lhand -17.3003 45.5549
lfingers 7.12502
lthumb 8.94561 75.3453
rfemur -9.12357 4.39414 13.0788
rtibia 21.6928
rfoot -13.6889 -17.2135
rtoes -10.5341
lfemur 2.48081 -2.66311 -25.6423
ltibia 6.02375
lfoot -13.7481 23.8053
ltoes -11.5418
10
root 0.329474 18.1551 -0.113141 1.48683 -10.3342 4.6634
lowerback 4.09846 2.28032 -1.47296
upperback 5.84653 3.01215 -0.3227
thorax 3.67443 1.44832 0.464159
lowerneck -6.55101 -5.40709 -4.55967
upperneck 21.8586 -7.51958 3.2156
head 8.13053 -3.63542 1.14798
rclavicle 3.57812e-015 -1.59028e-015
rhumerus -62.1346 16.4633 -101.714
rradius 70.5881
rwrist -87.4136
rhand -29.4466 0.58658
rfingers 7.12502
rthumb -2.78297 -29.375
lclavicle 3.57812e-015 -1.59028e-015
lhumerus -62.5389 -26.5884 100.641
lradius 74.6197
lwrist 65.5829
lhand -17.3848 45.2899
lfingers 7.12502
lthumb 8.86404 75.0837
rfemur -9.20896 4.34684 13.0263
rtibia 21.7042
rfoot -13.6272 -17.0803
rtoes -10.7334
lfemur 2.48366 -2.50967 -25.6942
ltibia 5.97474
lfoot -13.6546 23.8709
ltoes -12.0089
